<?xml version="1.0" encoding="utf-8"?>
<!-- Generator: Adobe Illustrator 24.2.0, SVG Export Plug-In . SVG Version: 6.00 Build 0)  -->
<svg version="1.1" id="Capa_1" xmlns="http://www.w3.org/2000/svg" xmlns:xlink="http://www.w3.org/1999/xlink" x="0px" y="0px"
	 viewBox="0 0 282 284" style="enable-background:new 0 0 282 284;" xml:space="preserve">
<style type="text/css">
	.st0{fill:#F3F2F1;}
	.st1{fill:#419964;}
	.st2{fill:#39A488;}
	.st3{fill:#AAB2BD;}
	.st4{fill:#CCD1D9;}
	.st5{fill:#C9F2F1;}
	.st6{fill:#CAEFEE;}
	.st7{fill:#51BFA6;}
	.st8{fill:#656D78;}
	.st9{fill:#F0D0B4;}
	.st10{fill:#FFF2A0;}
	.st11{fill:#99EBFA;}
	.st12{fill:#CCF5FC;}
	.st13{fill:#FAF7F5;}
</style>
<circle id="oval2" class="st0" cx="140.9" cy="141.9" r="141"/>
<g>
	<g>
		<g>
			<path class="st1" d="M124,241.6H57.9v-29.2c0-10.4,3.7-19.9,9.7-26.7c2.6-3,5.6-5.4,9-7.3c4.4-2.4,9.3-3.8,14.4-3.8
				c1.4,0,2.7,0.1,4,0.3c8.7,1.2,16.5,6.3,21.8,13.8c3.6,5.1,6.1,11.4,7,18.3l2.1,16.9l0.1,0.3l14.9-7.7l6.1,15.7l-13.5,7.1
				C130.4,240.8,127.2,241.6,124,241.6L124,241.6z"/>
		</g>
		<g>
			<path class="st2" d="M161.1,223.9c1.7-4.1,1.8-4.8,1.8-5.5c0-4.7-3.4-8.6-7.5-8.6h-0.1c-1.1,0-2.1,0.2-3.1,0.8l-3.7,1.9
				c3.2-6,9-9.7,15.2-9.7h5.4c2.3,0,4.4,0.7,6.2,1.9c0.9,0.6,1.8,1.4,2.6,2.2c2.2,2.6,3.6,6.1,3.6,10c0,3.9-2.8,7.1-6.2,7.1
				L161.1,223.9L161.1,223.9z"/>
		</g>
		<g>
			<path class="st3" d="M148.4,212.5L148.4,212.5l-4.1,2.1v-26h30.9v16c-1.8-1.2-3.9-1.9-6.2-1.9h-5.4
				C157.4,202.8,151.6,206.5,148.4,212.5L148.4,212.5z"/>
		</g>
		<g>
			<path class="st4" d="M237,160.5v14.1c0,7.8-5.5,14.1-12.3,14.1h-18.5h-30.9h-30.9h-27.6c-5.3-7.5-13.1-12.6-21.8-13.8V164h-1
				c2.6,0,5.1-1.2,6.9-3.3l0.2-0.2H237z"/>
		</g>
		<g>
			<path class="st5" d="M224.6,68.8h-61.7h-49.6h0c-1,12.2-7.5,22.6-16.7,27.9c2.7,2.6,4.5,6.5,4.5,10.9h9.3c3.4,0,6.2,3.1,6.2,7.1
				c0,1.9-0.7,3.7-1.8,5c-1.1,1.3-2.7,2.1-4.4,2.1h-9.3l2.6,30c0,0.4,0,0.7,0,1.1c0,2.9-0.9,5.6-2.7,7.7H237V82.9
				C237,75.1,231.4,68.8,224.6,68.8z"/>
		</g>
		<g>
			<ellipse class="st6" cx="193.7" cy="68.8" rx="30.9" ry="35.3"/>
		</g>
		<g>
			<path class="st7" d="M128.9,125.2h24.7v21.2h-24.7V125.2z"/>
		</g>
		<g>
			<path class="st6" d="M113.3,68.8c-1,12.2-7.5,22.6-16.7,27.9c-2.1-2-4.9-3.2-7.8-3.2H76.4c-3.2,0-6.2,0.9-8.9,2.6
				c-9.4-6-15.8-17.6-15.8-30.8C51.7,45.8,65.5,30,82.6,30s30.9,15.8,30.9,35.3C113.5,66.5,113.4,67.6,113.3,68.8z"/>
		</g>
		<g>
			<path class="st8" d="M76.4,146.4V164c-11.1-4.2-18.5-16-18.5-29.4v-12.9h18.5l-2.9,3.3c-2.1,2.4-3.3,5.6-3.3,9s1.2,6.6,3.3,9
				L76.4,146.4z"/>
		</g>
		<g>
			<path class="st7" d="M101.1,107.6h-8.5c-2.3,0-4.5,1.5-5.5,3.9l-4.5,10.2h-6.2H57.9v-7.1c0-8,3.9-15,9.7-18.6
				c2.6-1.7,5.6-2.6,8.9-2.6h12.3c3,0,5.7,1.2,7.8,3.2C99.3,99.3,101.1,103.2,101.1,107.6z"/>
		</g>
		<g>
			<path class="st7" d="M110.4,107.6c3.4,0,6.2,3.1,6.2,7.1c0,1.9-0.7,3.7-1.8,5c-1.1,1.3-2.7,2.1-4.4,2.1h-9.3H82.6l4.5-10.2
				c1-2.4,3.2-3.9,5.5-3.9h8.5H110.4z"/>
		</g>
		<g>
			<path class="st9" d="M155.4,209.9c4.1,0,7.5,3.8,7.5,8.6c0,0.7-0.1,1.4-1.8,5.5c-0.7,1-1.6,1.8-2.6,2.3l-11.6,6l-6.1-15.7
				l3.6-1.9l4-2.1l0,0l3.7-1.9c1-0.5,2-0.8,3.1-0.8L155.4,209.9z"/>
		</g>
		<g>
			<path class="st9" d="M76.4,164v-17.6l-2.9-3.3c-2.1-2.4-3.3-5.6-3.3-9c0-3.4,1.2-6.6,3.3-9l2.9-3.3h6.2h18.5l2.6,30
				c0,0.4,0,0.7,0,1.1c0,2.9-0.9,5.6-2.7,7.7c-0.1,0.1-0.2,0.2-0.2,0.2c-1.8,2.1-4.3,3.3-6.9,3.3h1v10.9c-1.3-0.2-2.6-0.3-4-0.3
				c-5.2,0-10.1,1.4-14.4,3.8l-0.1-0.3V164z"/>
		</g>
	</g>
	<g>
		<path d="M224.6,192.2c8.5,0,15.4-7.9,15.4-17.6V82.9c0-8.6-5.4-15.7-12.5-17.3c-1.4-19.9-16-35.6-33.8-35.6
			c-17.7,0-32.2,15.5-33.8,35.3h-43.4c0-21.4-15.2-38.8-34-38.8s-34,17.4-34,38.8c0,12.2,5.1,23.7,13.5,30.9
			c-4.5,4.5-7.3,11.1-7.3,18.4v7.1v3.5v9.4c0,14,7.4,26.5,18.5,31.8v9.9c-11,7.1-18.5,20.6-18.5,36v32.8h70.6V245
			c3.2-0.2,6.3-1,9.2-2.5l25.1-13c1-0.5,1.9-1.2,2.6-2h12.8c4,0,7.4-3,8.7-7.1h46.9c5.1,0,9.3-4.7,9.3-10.6s-4.2-10.6-9.3-10.6
			h-18.5c-1.7,0-3.1-1.6-3.1-3.5v-3.5H224.6z M224.6,185.2H118.1c-5.2-6.7-12.2-11.5-20-13.3v-5.2c1.5-0.6,3-1.5,4.2-2.7h131.6v10.6
			C233.9,180.4,229.7,185.2,224.6,185.2z M169,199.3h-5.4c-6.3,0-12.3,3.4-16.2,8.7v-15.8h24.7v7.4
			C171.1,199.4,170.1,199.3,169,199.3z M128.3,219.1l-1.6-12.6c-0.6-5.1-2.1-10-4.3-14.3h18.8v20.2L128.3,219.1z M87.6,118.2
			l2.2-5.1c0.5-1.2,1.6-2,2.8-2h17.8c1.7,0,3.1,1.6,3.1,3.5s-1.4,3.5-3.1,3.5H87.6z M193.7,37c15.3,0,27.8,14.2,27.8,31.7
			s-12.5,31.7-27.8,31.7s-27.8-14.2-27.8-31.7S178.4,37,193.7,37z M159.9,72.3c1.6,19.7,16.1,35.3,33.8,35.3
			c17.5,0,32-15.2,33.8-34.7c3.7,1.4,6.4,5.3,6.4,10V157H106.3c0.5-1.8,0.7-3.7,0.5-5.7l-2.3-26.1h5.9c5.1,0,9.3-4.7,9.3-10.6
			s-4.2-10.6-9.3-10.6h-6.5c-0.4-2.4-1.3-4.6-2.5-6.5c7.7-5.8,12.9-14.9,14.5-25.2L159.9,72.3z M54.8,65.3
			c0-17.5,12.5-31.7,27.8-31.7s27.8,14.2,27.8,31.7c0,11.3-5.2,21.5-13.7,27.2c-2.3-1.6-5-2.6-8-2.6H76.4c-3.1,0-6,0.8-8.7,2.1
			C59.7,86.2,54.8,76.2,54.8,65.3z M61,114.6c0-9.7,6.9-17.6,15.4-17.6h12.4c4,0,7.5,2.9,8.7,7.1h-4.9c-3.5,0-6.7,2.2-8.3,5.8
			l-3.6,8.3H61L61,114.6z M61,134.6v-9.4h8.5c-1.5,2.6-2.3,5.6-2.3,8.8c0,4.3,1.5,8.5,4.2,11.5l2,2.3v10.7
			C65.8,153.8,61,144.7,61,134.6L61,134.6z M75.7,140.6c-1.5-1.7-2.4-4.1-2.4-6.5c0-2.5,0.8-4.8,2.4-6.5l2-2.3h20.6l2.3,26.8
			c0.2,2.3-0.5,4.6-1.9,6.2c-1.3,1.4-3,2.3-4.8,2.3h-8.3v7.1h6.2v3.6c-0.3,0-0.6,0-0.9,0c-4,0-7.9,0.8-11.5,2.2v-28.3L75.7,140.6z
			 M132,236.1c-2.5,1.3-5.2,2-8,2c-8.6,0-16.1-6.4-18.6-15.8l-4.5-17l-5.9,2l4.5,17c1.5,5.6,4.3,10.2,7.9,13.8H61v-25.7
			c0-18.9,13.4-34.2,30-34.2c14.8,0,27.6,12.6,29.7,29.4l1.8,14.6l-4.1,2.1l2.6,6.4l18.3-9.5l3.6,9.3L132,236.1z M157.2,223
			l-8.7,4.5l-3.6-9.3l8.6-4.5c0.6-0.3,1.2-0.4,1.9-0.4c2.4,0,4.4,2.3,4.4,5.1C159.8,220.4,158.7,222.2,157.2,223z M175.2,220.4h-9.4
			c0.1-0.7,0.2-1.3,0.2-2c0-5.1-2.8-9.5-6.8-11.3c1.4-0.5,2.9-0.8,4.5-0.8h5.4c5.1,0,9.3,4.7,9.3,10.6
			C178.3,218.9,176.9,220.4,175.2,220.4L175.2,220.4z M212.3,206.3h18.5c1.7,0,3.1,1.6,3.1,3.5c0,1.9-1.4,3.5-3.1,3.5h-46.6
			c-0.8-4.3-2.9-7.9-5.9-10.5v-10.7H203v3.5C203,201.6,207.1,206.3,212.3,206.3L212.3,206.3z"/>
		<path d="M221.5,171.1h6.2v7.1h-6.2V171.1z"/>
		<path d="M209.2,171.1h6.2v7.1h-6.2V171.1z"/>
		<path d="M196.8,171.1h6.2v7.1h-6.2V171.1z"/>
		<path d="M175.2,51.1h6.2v7.1h-6.2V51.1z"/>
		<path d="M187.6,51.1h24.7v7.1h-24.7V51.1z"/>
		<path d="M175.2,65.3h6.2v7.1h-6.2V65.3z"/>
		<path d="M187.6,65.3h24.7v7.1h-24.7V65.3z"/>
		<path d="M175.2,79.4h6.2v7.1h-6.2V79.4z"/>
		<path d="M187.6,79.4h24.7v7.1h-24.7V79.4z"/>
		<path d="M156.7,121.7h-30.9v28.2h30.9V121.7z M150.5,142.8H132v-14.1h18.5V142.8z"/>
		<path d="M125.8,107.6h30.9v7.1h-30.9V107.6z"/>
		<path d="M125.8,93.5h30.9v7.1h-30.9V93.5z"/>
		<path d="M125.8,79.4h30.9v7.1h-30.9V79.4z"/>
		<path d="M162.9,142.8h6.2v7.1h-6.2V142.8z"/>
		<path d="M175.2,142.8h52.5v7.1h-52.5V142.8z"/>
		<path d="M162.9,128.7h64.8v7.1h-64.8V128.7z"/>
		<path d="M162.9,114.6h64.8v7.1h-64.8V114.6z"/>
	</g>
</g>
<g>
	<g>
		<path class="st10" d="M98,57c0-8.3-7.1-15-16-15.1c-9-0.1-16.4,6.7-16.4,15c0,6.9,4.9,12.7,11.6,14.6c0.9,0.2,1.5,1,1.5,1.8v0.8
			h6.3v-0.8c0-0.8,0.6-1.6,1.5-1.8C93.1,69.7,98,63.9,98,57L98,57z"/>
		<path class="st11" d="M86,78.5h-8.4c-1.3,0-2.4-1-2.4-2.2c0-1.2,1.1-2.2,2.4-2.2H86c1.3,0,2.4,1,2.4,2.2
			C88.3,77.6,87.3,78.5,86,78.5z"/>
		<path class="st12" d="M84.9,83h-6.2c-1.3,0-2.4-1-2.4-2.2v0c0-1.2,1.1-2.2,2.4-2.2h6.2c1.3,0,2.4,1,2.4,2.2v0
			C87.2,82,86.2,83,84.9,83z"/>
		<path class="st11" d="M79.4,83v1.8c0,1.2,1.1,2.2,2.4,2.2s2.4-1,2.4-2.2V83H79.4z"/>
		<path class="st13" d="M86.2,52.2l-3.3,5h1.9c1.1,0,1.7,1.2,1.1,2L81,65.3l0.1-5.6h-2.5c-1,0-1.7-1-1.2-1.8l2.8-5
			c0.2-0.4,0.7-0.7,1.2-0.7L86.2,52.2z"/>
	</g>
	<g>
		<g>
			<path d="M82,40.8c-4.6-0.1-9,1.6-12.3,4.6c-3.3,3-5.2,7.1-5.2,11.4c0,3.6,1.2,7,3.5,9.8c2.2,2.7,5.4,4.8,8.9,5.8
				c0.3,0.1,0.6,0.3,0.6,0.6c-1.9,0-3.4,1.5-3.4,3.2c0,1.1,0.6,2.1,1.6,2.7c-0.3,0.5-0.5,1.1-0.5,1.7c0,1.7,1.4,3.1,3.1,3.2v0.8
				c0,1.8,1.6,3.2,3.5,3.2c1.9,0,3.5-1.4,3.5-3.2V84c1.7-0.2,3.1-1.5,3.1-3.2c0-0.6-0.2-1.2-0.5-1.7c1-0.6,1.6-1.6,1.6-2.7
				c0-1.8-1.5-3.2-3.4-3.2c0.1-0.3,0.3-0.5,0.6-0.6c3.5-1,6.7-3,8.9-5.7c2.3-2.8,3.5-6.2,3.5-9.8c0-4.3-1.8-8.3-5-11.3
				C90.9,42.6,86.6,40.9,82,40.8L82,40.8z M83,84.8c0,0.7-0.6,1.2-1.3,1.2c-0.7,0-1.3-0.5-1.3-1.2V84H83L83,84.8L83,84.8z
				 M84.9,81.9h-6.2c-0.7,0-1.3-0.5-1.3-1.2c0-0.7,0.6-1.2,1.3-1.2h6.2c0.7,0,1.3,0.5,1.3,1.2C86.1,81.4,85.6,81.9,84.9,81.9z
				 M87.2,76.3c0,0.7-0.6,1.2-1.3,1.2h-8.4c-0.7,0-1.3-0.5-1.3-1.2c0-0.7,0.6-1.2,1.3-1.2H86C86.7,75.2,87.2,75.7,87.2,76.3z
				 M86,70.5c-1.2,0.3-2.1,1.4-2.2,2.6h-4.1c-0.1-1.2-1-2.2-2.2-2.6c-6.4-1.8-10.9-7.4-10.8-13.6c0-3.8,1.6-7.3,4.5-10
				c2.9-2.7,6.7-4.1,10.8-4.1C90.2,43,96.9,49.3,96.9,57C96.9,63.2,92.4,68.8,86,70.5L86,70.5z"/>
			<path d="M73,48.7c-0.9,0.8-1.7,1.8-2.3,2.8c-0.3,0.5-0.1,1.1,0.5,1.4c0.2,0.1,0.3,0.1,0.5,0.1c0.4,0,0.8-0.2,1-0.5
				c0.5-0.9,1.1-1.7,1.9-2.4c0.4-0.4,0.4-1,0-1.4C74.1,48.3,73.4,48.3,73,48.7L73,48.7z"/>
			<path d="M71.4,56.2c-0.2-0.4-0.6-0.7-1.1-0.6c-0.5,0-0.9,0.3-1,0.7c-0.1,0.4,0,0.8,0.4,1.1c0.4,0.3,0.9,0.3,1.3,0
				C71.4,57.2,71.6,56.6,71.4,56.2z"/>
			<path d="M81.8,38.9c0.6,0,1.1-0.5,1.1-1v-1.1c0-0.6-0.5-1-1.1-1s-1.1,0.5-1.1,1v1.1C80.7,38.5,81.2,38.9,81.8,38.9z"/>
			<path d="M104,56.5h-1.2c-0.6,0-1.1,0.5-1.1,1s0.5,1,1.1,1h1.2c0.6,0,1.1-0.5,1.1-1C105.1,57,104.6,56.5,104,56.5L104,56.5z"/>
			<path d="M60.7,56.5h-1.2c-0.6,0-1.1,0.5-1.1,1s0.5,1,1.1,1h1.2c0.6,0,1.1-0.5,1.1-1C61.8,57,61.3,56.5,60.7,56.5z"/>
			<path d="M96.6,44.7c0.3,0,0.6-0.1,0.8-0.3l0.8-0.8c0.4-0.4,0.4-1,0-1.4c-0.4-0.4-1.1-0.4-1.5,0l-0.8,0.8c-0.4,0.4-0.4,1,0,1.4
				C96.1,44.6,96.3,44.7,96.6,44.7L96.6,44.7z"/>
			<path d="M66.1,70.7l-0.8,0.8c-0.4,0.4-0.4,1,0,1.4c0.2,0.2,0.5,0.3,0.8,0.3s0.6-0.1,0.8-0.3l0.8-0.8c0.4-0.4,0.4-1,0-1.4
				C67.2,70.3,66.6,70.3,66.1,70.7z"/>
			<path d="M97.4,70.7c-0.4-0.4-1.1-0.4-1.5,0s-0.4,1,0,1.4l0.8,0.8c0.2,0.2,0.5,0.3,0.8,0.3c0.3,0,0.6-0.1,0.8-0.3
				c0.4-0.4,0.4-1,0-1.4L97.4,70.7z"/>
			<path d="M66.1,44.4c0.2,0.2,0.5,0.3,0.8,0.3c0.3,0,0.6-0.1,0.8-0.3c0.4-0.4,0.4-1,0-1.4l-0.8-0.8c-0.4-0.4-1.1-0.4-1.5,0
				c-0.4,0.4-0.4,1,0,1.4L66.1,44.4z"/>
			<path d="M84.8,56.1l2.3-3.4c0.2-0.3,0.2-0.7,0-1c-0.2-0.3-0.6-0.5-1-0.5h-4.7c-0.9,0-1.7,0.5-2.2,1.2l-2.8,5
				c-0.4,0.7-0.4,1.5,0.1,2.2c0.4,0.7,1.2,1.1,2.1,1.1h1.4L80,65.3c0,0.4,0.3,0.8,0.7,1c0.1,0,0.2,0.1,0.4,0.1
				c0.3,0,0.7-0.1,0.9-0.4l4.9-6.2c0.5-0.7,0.6-1.6,0.2-2.4C86.6,56.6,85.8,56.1,84.8,56.1z M85,58.6l-2.8,3.6l0.1-2.4
				c0-0.3-0.1-0.5-0.3-0.7c-0.2-0.2-0.5-0.3-0.8-0.3h-2.5c-0.1,0-0.2-0.1-0.2-0.1s-0.1-0.1,0-0.2l2.8-5c0-0.1,0.1-0.1,0.2-0.1h2.7
				L82,56.6c-0.2,0.3-0.2,0.7,0,1c0.2,0.3,0.6,0.5,1,0.5h1.9c0.1,0,0.2,0.1,0.2,0.1C85.1,58.4,85.1,58.5,85,58.6L85,58.6z"/>
		</g>
	</g>
</g>
</svg>
