<?xml version="1.0" encoding="utf-8"?>
<!-- Generator: Adobe Illustrator 24.2.0, SVG Export Plug-In . SVG Version: 6.00 Build 0)  -->
<svg version="1.1" id="Capa_1" xmlns="http://www.w3.org/2000/svg" xmlns:xlink="http://www.w3.org/1999/xlink" x="0px" y="0px"
	 viewBox="0 0 370 162" style="enable-background:new 0 0 370 162;" xml:space="preserve">
<style type="text/css">
	.st0{fill:none;}
	.st1{fill:#39A488;}
	.st2{fill:#F7F9F8;}
</style>
<g>
	<rect x="21.7" y="58.3" class="st0" width="358.4" height="157"/>
	<path class="st1" d="M202.4,102.5c7.8,0,11.7,4.9,11.7,14.7c0,4.5-1.2,9.3-3.5,14.4c-3,6.9-7.5,13.2-13.4,18.9c1.4,2.7,3.9,4,7.5,4
		c2.9,0,5.6-1.4,8.2-4.3c3.2-3.3,5.5-6.2,6.9-8.7c1.4-2.5,2.4-4.3,3-5.5c0.6-1.2,1.5-2.9,2.5-5c1-2.2,1.6-3.5,1.8-4
		c0.2-0.5,0.6-0.7,1.1-0.7c1.1-0.1,1.6,0.3,1.6,1.1c0,0.3-0.1,0.7-0.3,1.1l-1,2.2c-0.6,1.5-1.1,2.6-1.4,3.2s-0.9,1.8-1.7,3.4
		c-0.8,1.7-1.5,3-2.1,3.9c-0.6,1-1.4,2.2-2.4,3.8c-1,1.6-1.9,2.9-2.7,3.8s-1.8,2-3,3.2c-1.2,1.2-2.3,2.1-3.4,2.7
		c-2.7,1.6-5.2,2.4-7.5,2.4c-4.4,0-7.8-1.4-10.2-4.2c-4.9,3.6-9.4,5.4-13.6,5.4c-7.8,0-11.7-4.9-11.7-14.7c0-4.5,1.2-9.3,3.5-14.4
		c3.2-7.5,7.7-13.8,13.5-19C191.6,105.1,197.1,102.5,202.4,102.5z M204.1,107.5c-2.9,0-6.3,1.9-10.2,5.8c-3.9,3.8-7.5,9.1-10.6,15.7
		c-3.7,7.7-5.6,14-5.6,18.9c0,4.9,1.9,7.4,5.6,7.4c2.7,0,5.7-1.4,9-4.3c-1.7-2.5-2.6-5.1-2.6-7.8c0.2-4.6,2.1-6.9,5.6-6.9
		c1.4,0,2.5,0.5,3.4,1.4c0.9,1,1.4,1.8,1.4,2.6c0,0.8-0.1,1.6-0.3,2.5c1.8-2.7,3.9-6.5,6.2-11.4c2.7-5.4,4-10.8,4-16
		C210,110.1,208.1,107.5,204.1,107.5z"/>
	<path class="st1" d="M248.4,94.3c0,4.8-3,9.3-9.1,13.6c2.1,0.1,5,0.2,8.6,0.2c3.6,0,8.1-0.3,13.5-0.8c0.2,0.3,0.3,1.2,0.3,2.6
		c0,1.4-0.6,3.4-1.9,6.2c-1.3,2.7-2.4,5.1-3.4,7c-1,2-2,3.8-2.9,5.6c-0.9,1.8-1.9,3.9-3,6.5c-1.1,2.6-2.1,4.9-2.8,7
		c-2.7,8.1-2.2,12.2,1.3,12.2c4.5,0,11.1-8.9,19.8-26.7c0.7-1.4,1.4-1.9,1.8-1.6c0.5,0.3,0.7,0.7,0.7,1.2c0,0.5-0.7,2.1-2.1,5
		c-1.4,2.8-2.9,5.7-4.5,8.7c-1.6,3-4.1,6.5-7.5,10.4c-4.1,4.9-7.9,7.4-11.7,7.4c-4.2,0-7-2.5-8.6-7.5c-0.3-1-0.5-2.4-0.5-4.3
		s0.6-4.5,1.8-7.7c1.2-3.2,3.2-7.1,5.8-11.7c2.7-4.6,4.2-7.3,4.5-8.1c0.3-0.8,0.5-1.6,0.5-2.3c0-3.3-4.3-5.1-12.8-5.3l-1.9,5.1
		c-6.7,17.6-13.2,29.4-19.4,35.4c-1.1,1-1.6,0.6-1.6-1c0-0.3,0.1-0.7,0.3-1.1c6-7.9,11.1-17.2,15.5-28c4.4-10.8,7.4-21,9.1-30.7
		c0.6-3.3,2.1-5,4.5-5c2.3,0,4.1,1.5,5.1,4.5C248.3,91.9,248.4,93.1,248.4,94.3z"/>
	<path class="st1" d="M309.7,115.3c0-2.9-1.4-4.3-4.3-4.3c-4.3,0-9.2,2.4-14.8,7.3c-5.6,4.9-10.3,9.9-14,15.3
		c-1.6,3.1-2.9,7-3.9,11.7c-1,4.7-1.5,7.9-1.5,9.8c0,1.8,0.3,3,1,3.5H262c-1.6,0-2-1.4-1.2-4.2c0.8-2.8,1.9-5.9,3.3-9.2
		c1.4-3.3,3.1-7.1,5.2-11.4s3.6-7.6,4.6-9.8c-8.7,16.5-14.4,26-17,28.5c-1.1,1-1.6,0.6-1.6-1c0-0.3,0.1-0.7,0.3-1.1
		c3.7-4.9,11.2-18.2,22.3-40c11.1-21.8,19-36,23.4-42.7c3.6-5.2,7.1-7.8,10.6-7.8h0.2h0.8c0.1,0,1,0.2,2.8,0.5
		c1.8,0.3,3.1,0.4,3.9,0.2c-3.9,3-9.4,9.8-16.3,20.6c-6.9,10.7-12.4,20.1-16.5,28.2c-4.1,8.1-6.8,14.2-8.2,18.3
		c9.7-12.1,18.4-19.5,26.1-22.4c3.6-1.2,6.5-1.8,8.6-1.8c4.7,0,7,2,7,5.9c0,1.3-0.3,2.7-0.8,4.3c-1.5,4.1-4.6,7.7-9.2,11
		c-4.6,3.3-9.7,5.1-15.3,5.7c-1.3,3-1.9,5.7-1.9,8.2c0,2.5,0.3,4.8,0.8,6.8c1.3,5.1,3.7,8.3,7.2,9.4c0.7,0.2,1.5,0.3,2.2,0.3
		c3,0,6.5-1.9,10.6-5.6c3.3-3.6,7.6-10.9,13-21.9c0.7-1.4,1.3-1.8,1.8-1.4c0.4,0.5,0.6,0.9,0.6,1.4c0,0.4-0.8,2.5-2.4,6.2
		c-1.6,3.7-3.8,7.8-6.7,12.3c-6.1,9.2-12.8,13.8-20.2,13.8c-4.5,0-7.9-1.3-10.4-3.8c-3.5-3.6-5.3-8.4-5.3-14.2c0-3,0.8-6,2.4-9.1
		c1.6-3.1,3.5-4.7,5.6-5c0.3,0,0.6,0,1,0c3.7,0,7.4-1.4,11-4.3C307.9,120.3,309.7,117.6,309.7,115.3z"/>
</g>
<g>
	<rect x="120.6" y="256.7" class="st0" width="1" height="9.6"/>
</g>
<path class="st1" d="M188.7,11.4c0-2.8,0.6-6.7-1.7-8.7c-0.8-0.8-2.5-0.6-3.4,0c-2,1.1-3.9,2-4.5,3.9c-2,4.5-2,9.5-2.8,14.3
	c-1.7,9.2-3.6,18.5-5.9,27.4c-5.6,23.5-12.3,46.8-23.5,68c-4.5,9-10.1,17.9-17.6,24.6c-4.8,4.2-11.2,7.6-17.6,7.6
	c-3.4,0.3-7.3-0.8-10.1-2.8c-3.9-2.8-6.7-7.3-8.7-11.5c-1.4-3.6-2.5-7.3-3.4-10.9c0.3-1.1,0.8-2.2,1.4-3.1
	c6.4-16.5,10.4-33.9,12.9-51.2c1.7-12.9,2.8-26,0-38.6c-0.3-1.1-0.6-2-0.8-3.1c-0.6-1.1-2.2-3.1-3.4-2.2c-0.3,0.6-0.6,1.1-0.8,2
	c-1.4,0-2.8,1.1-3.6,2c-1.1,1.4-1.7,3.1-2.2,4.8c-1.7,3.6-3.4,7.3-4.8,11.2c-5.3,14.8-8.7,30.5-9.2,46.5c-0.3,10.1,0.3,20.7,2,30.8
	c-0.6,1.4-1.1,2.8-2,3.9c-4.2,8.1-9.5,16-16.8,21.3c-3.9,2.8-9.2,5-14.3,4.8c-3.9,0-8.4-1.4-11.5-3.9c-5.6-4.2-9.2-10.6-11.8-17.1
	c-6.4-16-8.1-33.9-7.8-51.2c0-14.6,1.1-29.1,4.5-43.1c0.8-4.8,2.5-9.2,3.9-13.7c1.1-3.1,3.1-7,1.4-9.8c-0.6-1.1-2-1.4-3.1-1.4
	c-2,0.3-3.6,0.8-5.3,2c-0.6,0.3-1.1,1.4-1.4,2.2c-0.8,1.4-1.4,2.8-2,4.2c-2,4.5-3.6,9.5-4.8,14.3C6.4,49.5,5.6,64.9,5.6,80
	c0,13.4,1.4,26.9,4.5,40c2,7.6,4.8,15.4,8.7,22.4c3.4,6.2,8.1,11.8,14.3,15.4c4.5,2.5,9.8,3.9,14.8,3.9c7.8,0,16-3.6,21.8-8.7
	c5.9-5,10.6-11.5,14.3-18.5c1.1,2.8,2.2,5.6,3.6,8.1c2.5,4.5,6.2,9,10.6,11.5c3.9,2.5,9,3.6,13.4,3.9c6.4,0,12.6-2,17.9-5.3
	c8.7-5,15.4-13.4,21-22.1c13.2-19.9,21-43.1,27.4-66.1c3.6-13.2,6.7-26.3,8.7-39.5C187.6,20.7,188.4,16.2,188.7,11.4z"/>
<path class="st2" d="M98.6,44.6c0.3,8.7-0.6,17.6-2,26c-2,14.3-5.3,28.8-10.4,42.3c-0.6-5.6-0.6-11.2-0.8-16.5
	C85.4,76.8,90.2,57,98,39C98.3,41,98.6,42.7,98.6,44.6z"/>
<g>
</g>
<g>
</g>
<g>
</g>
<g>
</g>
<g>
</g>
</svg>
